<?xml version="1.0" encoding="utf-8"?>
<!-- Generator: Adobe Illustrator 19.1.0, SVG Export Plug-In . SVG Version: 6.00 Build 0)  -->
<svg version="1.1" id="Layer_1" xmlns="http://www.w3.org/2000/svg" xmlns:xlink="http://www.w3.org/1999/xlink" x="0px" y="0px"
	 viewBox="163.2 11.1 285.5 769.4" style="enable-background:new 163.2 11.1 285.5 769.4;" xml:space="preserve">
<style type="text/css">
	.st0{fill:#FAA01D;}
	.st1{fill:#FFFFFF;}
	.st2{fill:#ED6F05;}
</style>
<path d="M448.8,596.6v94.9c0,5.7-4.8,9.6-9.6,9.6l0,0c-5.7,0-9.6-4.8-9.6-9.6v-94.9c0-5.7,4.8-9.6,9.6-9.6l0,0
	C444,587,448.8,590.8,448.8,596.6z"/>
<path d="M448.8,107.9v94.9c0,5.7-4.8,9.6-9.6,9.6l0,0c-5.7,0-9.6-4.8-9.6-9.6v-94.9c0-5.7,4.8-9.6,9.6-9.6l0,0
	C444,98.3,448.8,102.2,448.8,107.9z"/>
<path d="M182.4,596.6v94.9c0,5.7-4.8,9.6-9.6,9.6l0,0c-5.7,0-9.6-4.8-9.6-9.6v-94.9c0-5.7,4.8-9.6,9.6-9.6l0,0
	C177.6,587,182.4,590.8,182.4,596.6z"/>
<path d="M182.4,107.9v94.9c0,5.7-4.8,9.6-9.6,9.6l0,0c-5.7,0-9.6-4.8-9.6-9.6v-94.9c0-5.7,4.8-9.6,9.6-9.6l0,0
	C177.6,98.3,182.4,102.2,182.4,107.9z"/>
<path class="st0" d="M412.4,773.9H198.7c-16.3,0-29.7-13.4-29.7-29.7V50.4c0-16.3,13.4-29.7,29.7-29.7h213.7
	c16.3,0,29.7,13.4,29.7,29.7v693.7C442.1,760.4,428.7,773.9,412.4,773.9z"/>
<rect x="202.5" y="726" class="st1" width="91" height="26.8"/>
<rect x="317.5" y="726" class="st1" width="91" height="26.8"/>
<rect x="203.5" y="45.6" class="st1" width="91" height="18.2"/>
<rect x="318.5" y="45.6" class="st1" width="91" height="18.2"/>
<rect x="175.7" y="697.2" class="st1" width="10.5" height="44.1"/>
<rect x="175.7" y="45.6" class="st1" width="10.5" height="44.1"/>
<rect x="175.7" y="110.8" class="st1" width="10.5" height="559.6"/>
<rect x="420" y="697.2" class="st1" width="10.5" height="44.1"/>
<rect x="420" y="45.6" class="st1" width="10.5" height="44.1"/>
<rect x="420" y="110.8" class="st1" width="10.5" height="559.6"/>
<path class="st2" d="M308.9,712.1c-10.8,0-19.6-8.8-19.6-19.7V113.7c0-10.8,8.8-19.6,19.6-19.6c10.8,0,19.7,8.8,19.7,19.6v578.8
	C328.5,703.3,319.7,712.1,308.9,712.1z M308.9,96.9c-9.2,0-16.8,7.5-16.8,16.8v578.8c0,9.2,7.5,16.8,16.8,16.8
	c9.2,0,16.8-7.5,16.8-16.8V113.7C325.6,104.4,318.1,96.9,308.9,96.9z"/>
<path class="st2" d="M356.8,712.1c-6.5,0-12-5.5-12-12V106c0-6.5,5.5-12,12-12c6.5,0,12,5.5,12,12v594.1
	C368.8,706.6,363.3,712.1,356.8,712.1z M356.8,96.9c-4.9,0-9.1,4.2-9.1,9.1v594.1c0,4.9,4.2,9.1,9.1,9.1c4.9,0,9.1-4.2,9.1-9.1V106
	C365.9,101.1,361.7,96.9,356.8,96.9z"/>
<path class="st2" d="M261,712.1c-6.5,0-12-5.5-12-12V106c0-6.5,5.5-12,12-12c6.5,0,12,5.5,12,12v594.1
	C272.9,706.6,267.5,712.1,261,712.1z M261,96.9c-4.9,0-9.1,4.2-9.1,9.1v594.1c0,4.9,4.2,9.1,9.1,9.1c4.9,0,9.1-4.2,9.1-9.1V106
	C270.1,101.1,265.9,96.9,261,96.9z"/>
<g>
	<path class="st2" d="M403.7,214.3h-19.2c-4.8,0-7.7-3.8-7.7-7.7v-60.4c0-4.8,3.8-7.7,7.7-7.7h19.2c4.8,0,7.7,3.8,7.7,7.7v60.4
		C411.4,210.4,407.6,214.3,403.7,214.3z"/>
	<path class="st2" d="M403.7,306.3h-19.2c-4.8,0-7.7-3.8-7.7-7.7v-60.4c0-4.8,3.8-7.7,7.7-7.7h19.2c4.8,0,7.7,3.8,7.7,7.7v60.4
		C411.4,303.4,407.6,306.3,403.7,306.3z"/>
	<path class="st2" d="M403.7,396.3h-19.2c-4.8,0-7.7-3.8-7.7-7.7v-60.4c0-4.8,3.8-7.7,7.7-7.7h19.2c4.8,0,7.7,3.8,7.7,7.7v60.4
		C411.4,392.5,407.6,396.3,403.7,396.3z"/>
	<path class="st2" d="M403.7,479.7h-19.2c-4.8,0-7.7-3.8-7.7-7.7v-60.4c0-4.8,3.8-7.7,7.7-7.7h19.2c4.8,0,7.7,3.8,7.7,7.7V472
		C411.4,476.8,407.6,479.7,403.7,479.7z"/>
	<path class="st2" d="M403.7,565.9h-19.2c-4.8,0-7.7-3.8-7.7-7.7v-60.4c0-4.8,3.8-7.7,7.7-7.7h19.2c4.8,0,7.7,3.8,7.7,7.7v60.4
		C411.4,563.1,407.6,565.9,403.7,565.9z"/>
	<path class="st2" d="M403.7,657h-19.2c-4.8,0-7.7-3.8-7.7-7.7v-60.4c0-4.8,3.8-7.7,7.7-7.7h19.2c4.8,0,7.7,3.8,7.7,7.7v60.4
		C411.4,654.1,407.6,657,403.7,657z"/>
</g>
<g>
	<path class="st2" d="M226.5,215.2h-19.2c-4.8,0-7.7-3.8-7.7-7.7v-60.4c0-4.8,3.8-7.7,7.7-7.7h19.2c4.8,0,7.7,3.8,7.7,7.7v60.4
		C234.1,211.4,230.3,215.2,226.5,215.2z"/>
	<path class="st2" d="M226.5,308.2h-19.2c-4.8,0-7.7-3.8-7.7-7.7v-60.4c0-4.8,3.8-7.7,7.7-7.7h19.2c4.8,0,7.7,3.8,7.7,7.7v60.4
		C234.1,304.3,230.3,308.2,226.5,308.2z"/>
	<path class="st2" d="M226.5,397.3h-19.2c-4.8,0-7.7-3.8-7.7-7.7v-60.4c0-4.8,3.8-7.7,7.7-7.7h19.2c4.8,0,7.7,3.8,7.7,7.7v60.4
		C234.1,393.5,230.3,397.3,226.5,397.3z"/>
	<path class="st2" d="M226.5,481.6h-19.2c-4.8,0-7.7-3.8-7.7-7.7v-60.4c0-4.8,3.8-7.7,7.7-7.7h19.2c4.8,0,7.7,3.8,7.7,7.7v60.4
		C234.1,477.8,230.3,481.6,226.5,481.6z"/>
	<path class="st2" d="M226.5,567.8h-19.2c-4.8,0-7.7-3.8-7.7-7.7v-60.4c0-4.8,3.8-7.7,7.7-7.7h19.2c4.8,0,7.7,3.8,7.7,7.7v60.4
		C234.1,564,230.3,567.8,226.5,567.8z"/>
	<path class="st2" d="M226.5,658.9h-19.2c-4.8,0-7.7-3.8-7.7-7.7v-60.4c0-4.8,3.8-7.7,7.7-7.7h19.2c4.8,0,7.7,3.8,7.7,7.7v60.4
		C234.1,655,230.3,658.9,226.5,658.9z"/>
</g>
<path class="st0" d="M365.4,30.3H252.3c-5.7,0-9.6-4.8-9.6-9.6l0,0c0-5.7,4.8-9.6,9.6-9.6h113.1c5.7,0,9.6,4.8,9.6,9.6l0,0
	C375.9,25.5,371.2,30.3,365.4,30.3z"/>
<path class="st0" d="M366.4,780.6H253.3c-5.7,0-9.6-4.8-9.6-9.6l0,0c0-5.7,4.8-9.6,9.6-9.6h113.1c5.7,0,9.6,4.8,9.6,9.6l0,0
	C375.9,775.8,372.1,780.6,366.4,780.6z"/>
</svg>